<svg xmlns="http://www.w3.org/2000/svg" viewBox="0 0 850.3 294.06"><defs><style>.cls-1{fill:#fff;}.cls-1,.cls-2{stroke:#000;stroke-miterlimit:10;stroke-width:5px;}.cls-2{fill:none;stroke-linecap:round;}</style></defs><g id="レイヤー_2" data-name="レイヤー 2"><g id="レイヤー_1-2" data-name="レイヤー 1"><path d="M569.55,133.68c-.14-.42-.27-.7-.55-.7a.74.74,0,0,0-.56.42c-4.16,6.65-13,10.67-21.07,10.67-14,0-22.46-9.56-22.46-19.13,0-6.93,4.58-14,14.84-17.19a226.43,226.43,0,0,1,25.64-5.69c1.67-.27,2.22-.69,2.22-1.66,0-.69.14-1.52.14-2.22,0-7.62-3.19-13.58-14.42-13.58a21.87,21.87,0,0,0-16.22,6.65,3.85,3.85,0,0,1-2.91,1.39,3.76,3.76,0,0,1-3.92-3.59v-.12c0-5.26,11.64-11.23,23.57-11.23,12.89,0,21.62,5.69,21.62,21.22,0,1.24,0,2.49-.13,3.88-.42,4.57-.7,11.78-.7,17,0,10.12,1,13.45,6.52,15.39a3.54,3.54,0,0,1,2.36,3.47,3.76,3.76,0,0,1-3.64,3.88h-.11C575.79,142.55,570.8,138.8,569.55,133.68Zm-2.08-21.22v-1.8c0-1.11-.41-1.52-1.38-1.52h-.42c-21.77,3.46-33.27,6.23-33.27,15.94,0,5.82,5.54,11.65,14.83,11.65C554.28,136.73,567.47,133.81,567.47,112.46Z"/><path d="M620.15,142.41c-3.74-.14-7.9-.28-11.78-.28s-7.77.14-11.09.28c-.56,0-4.3.14-4.3-3.88a3.85,3.85,0,0,1,3.82-3.89h.48c1.8,0,2.63.13,5,.13,1.66,0,2.49-1,2.49-2.77.14-13.17.28-26.76.28-38.82,0-4-1.38-6.24-4.71-6.38-1.11,0-1.8.14-2.91.14h-.28a3.62,3.62,0,0,1-3.74-3.51.89.89,0,0,1,0-.23,4,4,0,0,1,3.83-4.15h.17c2.63,0,2.21.14,5.4.14,7.63,0,10.26,5.54,10.26,11.37v.37c-.14,9.71-.27,20.25-.27,30.37v10.81a2.43,2.43,0,0,0,2.22,2.63h.27c2.22,0,2.77,0,4.85-.13.56,0,4.3-.14,4.3,3.88a3.86,3.86,0,0,1-3.83,3.89,1.82,1.82,0,0,1-.33,0Zm-14-88.59c-.69,0-6.52,0-6.52-6.66a6.59,6.59,0,0,1,6.65-6.51,6.48,6.48,0,0,1,6.78,6.17c0,.11,0,.23,0,.34a6.62,6.62,0,0,1-6.56,6.67Z"/><path d="M667.84,143.93c-21.35,0-32.56-16.22-32.56-32.71,0-19.41,13.73-34,31.2-34a32,32,0,0,1,15.66,4.16,1.34,1.34,0,0,0,.7.27c.41,0,.55-.83.69-1.52.14-1.66,1.8-2.36,3.33-2.36,2.08,0,4,1.11,4,3.47v.28c-.14,2.91-.14,5-.14,7.21s0,4.29.14,7.48v.28c0,2.36-1.94,3.47-4,3.47A3.65,3.65,0,0,1,683,96.63c-.14-2.91.27-4.58-1.39-6.52-3.47-4-8.73-5.68-14.14-5.68-13.59,0-24.13,10.81-24.13,26.2,0,12.62,8.18,25.79,24.13,25.79,7.07,0,13.86-2.77,17.74-8a4.36,4.36,0,0,1,3.61-2.08,4.45,4.45,0,0,1,4.44,4.3C693.22,134.65,682.82,143.93,667.84,143.93Z"/><path d="M772.51,142.27c-3.6-.14-7.21-.28-10.81-.28s-6.8.14-10,.28-4.16-2.08-4.16-3.6a3.81,3.81,0,0,1,3.74-3.89h.4c1.8,0,1.94.14,4.16.14a2.12,2.12,0,0,0,2.21-2c0-.1,0-.2,0-.3,0-4.58.14-9.85.14-15,0-7.21-.14-13.72-.27-16.36-.7-11.5-8-16.36-15.95-16.36-9.7,0-20.24,7.21-20.66,18.17,0,2.63-.13,6.79-.13,11.78s.13,11.23.13,17.75a2.12,2.12,0,0,0,2.36,2.35,33.55,33.55,0,0,0,3.88-.14,3.76,3.76,0,0,1,.79,7.48,3.54,3.54,0,0,1-.65,0h-.14c-3.6-.14-7.35-.28-10.81-.28s-6.93.14-10.12.28-4.16-2.08-4.16-3.6a3.81,3.81,0,0,1,3.74-3.89h.4c1.8,0,2.22.14,4.43.14a2.08,2.08,0,0,0,2.23-1.91,3.23,3.23,0,0,0,0-.44c.14-11.23.28-28.7.28-45.34,0-11.78-.14-23-.14-31.33,0-3.61-1.11-5.55-4.71-5.69a28.18,28.18,0,0,0-3,.14h-.14a3.77,3.77,0,0,1-3.88-3.67.74.74,0,0,1,0-.21c0-2.36,1.11-4.16,7.07-4.16a31,31,0,0,1,3.46.28c6.52.69,9.43,4.85,9.43,10.53V61c0,11.23-.14,23.7-.14,25.65,0,.41.14.69.28.69s.28-.14.55-.42c4.86-6.24,12.76-9.42,20.52-9.42,11.51,0,22.6,7.07,23.16,22.18.13,5.82.27,21.76.27,32.72,0,1.52.7,2.49,2.36,2.49,2.08,0,1.94-.14,3.88-.14h.14a3.75,3.75,0,0,1,.38,7.49h-.46Z"/><path d="M810.91,142.41c-3.74-.14-7.9-.28-11.78-.28s-7.77.14-11.1.28c-.55,0-4.29.14-4.29-3.88a3.85,3.85,0,0,1,3.82-3.89H788c1.81,0,2.64.13,5,.13,1.66,0,2.49-1,2.49-2.77.14-13.17.28-26.76.28-38.82,0-4-1.39-6.24-4.72-6.38-1.1,0-1.8.14-2.91.14h-.27a3.63,3.63,0,0,1-3.75-3.52.81.81,0,0,1,0-.22A4,4,0,0,1,788,79.06h.17c2.64,0,2.22.14,5.41.14,7.63,0,10.26,5.54,10.26,11.37v.37c-.14,9.71-.28,20.25-.28,30.37v10.81a2.43,2.43,0,0,0,2.22,2.63H806c2.22,0,2.77,0,4.85-.13.56,0,4.3-.14,4.3,3.88a3.86,3.86,0,0,1-3.83,3.89,1.82,1.82,0,0,1-.33,0Zm-14-88.59c-.7,0-6.52,0-6.52-6.66A6.57,6.57,0,0,1,797,40.65h0a6.5,6.5,0,0,1,6.78,6.19c0,.11,0,.21,0,.32a6.62,6.62,0,0,1-6.56,6.67Z"/><path d="M556.28,257.93c-17.6,0-31.33-13.17-31.33-32.72,0-20.24,14.56-33.55,30.92-33.55,19,0,27.31,14.83,27.31,22.73,0,5.13-3,9-10.12,9.29-3.19.14-7.9.14-13,.14-10.4,0-22.19-.14-25.24-.14-1.38,0-1.66.56-1.66,2.5,0,15.11,10,24.4,23.29,24.4,10.12,0,15.81-4.3,20.11-9.15a3.91,3.91,0,0,1,2.77-1.25,4.25,4.25,0,0,1,4.16,4C583.42,247.41,573.71,257.93,556.28,257.93ZM556,198.59c-13.31,0-21.77,11.92-21.77,17,0,1.39,1.25,1.39,17.33,1.39,7.21,0,15,0,18.85-.14,3.33-.14,4.58-1.66,4.58-3.88,0-4-4.89-14.35-19-14.35Z"/><path d="M639.84,195.14c-.14,2.91-.14,4.86-.14,6.94s0,4,.14,7.2v.28c0,2.91-2.91,3.33-3.47,3.33-1.94,0-3.88-1.11-3.88-3.61,0-11.09-12.34-11.09-13.17-11.09-7.21,0-11.23,4.3-11.23,8.88,0,3.32,2.22,6.93,6.79,9.15,3.89,1.8,10.54,4.57,14.84,6.79,8.59,4.44,12.34,11,12.34,17.19,0,7.63-6.1,17.89-21.91,17.89-6,0-11-2.08-13.86-4.58a1.81,1.81,0,0,0-1-.55c-.28,0-.42.27-.42.69,0,3.47-1.66,3.88-3.33,3.88a3.33,3.33,0,0,1-3.59-3.07,2.17,2.17,0,0,1,0-.26v-.27c.14-3.05.28-5.13.28-7.21s-.14-4.16-.28-7.49v-.3a3.63,3.63,0,0,1,3.67-3.6h.21a3.57,3.57,0,0,1,3.74,3.37v.37c0,1-.27,1.67-.27,2.64,0,4.57,6.93,9.15,14.83,9.15,7.07,0,13.87-4,13.87-10.68,0-7.35-6.1-10.67-22.19-17.33-7.62-3.19-11.23-9.29-11.23-15.39,0-8,6.52-15.94,18.86-15.94,5,0,10.12,2.08,12.2,3.74a1,1,0,0,0,.83.28c.69,0,.56-1.25.69-1.67a3.13,3.13,0,0,1,3.19-2.21,3.24,3.24,0,0,1,3.46,3c0,.12,0,.23,0,.34Z"/><path d="M681.28,256.28c-3.75-.14-7.91-.27-11.79-.27s-7.76.13-11.09.27c-.55,0-4.3.14-4.3-3.88a3.85,3.85,0,0,1,3.82-3.89h.48c1.8,0,2.64.14,5,.14,1.67,0,2.5-1,2.5-2.77.14-13.17.28-26.76.28-38.82,0-4-1.39-6.24-4.72-6.38-1.11,0-1.8.14-2.91.14h-.27a3.64,3.64,0,0,1-3.75-3.53,1.62,1.62,0,0,1,0-.22,4,4,0,0,1,3.84-4.14h.16c2.63,0,2.22.13,5.41.13,7.62,0,10.26,5.55,10.26,11.37v.42c-.14,9.7-.28,20.24-.28,30.36V246a2.44,2.44,0,0,0,2.23,2.64h.26c2.22,0,2.78,0,4.86-.14.55,0,4.3-.14,4.3,3.88a3.86,3.86,0,0,1-3.83,3.89,1.82,1.82,0,0,1-.33,0Zm-14-88.59c-.69,0-6.51,0-6.51-6.65a6.58,6.58,0,0,1,6.63-6.52h0a6.49,6.49,0,0,1,6.79,6.18c0,.11,0,.23,0,.34a6.63,6.63,0,0,1-6.57,6.66Z"/><path d="M751.16,247.13c0-1.24,0-1.66-.14-1.66s-.55.42-1.11,1.25a29.17,29.17,0,0,1-22.6,11c-18,0-31.47-13.17-31.47-33,0-19.54,13.59-33,31.61-33,8.74,0,18.16,4.16,22.88,10.67a16.69,16.69,0,0,0,1.39,1.94c.13,0,.27-.41.41-1.52.42-5.27,4.71-9.84,11.79-9.84,3.88,0,5.82,1,5.82,4.15,0,1.94-1.11,3.89-3.33,3.89h-2.49c-2.78.13-4.86,2.21-5,7.76-.13,2.91-.13,8.46-.13,14.7,0,12.75.13,29,.13,36.32-.13,23-15.94,33.55-32.71,33.55-10.68,0-26.49-6.24-26.49-11.92a4.7,4.7,0,0,1,4.58-4.58,4,4,0,0,1,2.77,1.25c4.3,4.58,11.93,7.49,19.69,7.49,12.06,0,24.26-7.07,24.4-25.65Zm0-22.46c0-15.8-9.84-25.65-23.43-25.65-14,0-23.71,9.85-23.71,25.65s9.71,25.51,23.57,25.51c13,0,23.57-10,23.57-25.51Z"/><path d="M846.12,256.14c-3.6-.13-7.21-.27-10.81-.27s-6.79.14-10,.27-4.16-2.07-4.16-3.6a3.81,3.81,0,0,1,3.75-3.88h.39c1.66,0,1.94.14,4.16.14,1.38,0,2.08-1,2.08-2.5.14-6.38.14-14.28.14-20.79,0-4.72,0-8.6-.14-10.54-.7-11.51-8-16.22-15.81-16.22-9.7,0-20.38,7.35-20.79,18.3,0,2.63-.14,6.79-.14,11.78s.14,11.09.14,17.61c0,1.53.83,2.36,2.49,2.36a31.25,31.25,0,0,0,3.74-.14,3.68,3.68,0,0,1,4.12,3.17,3.64,3.64,0,0,1,0,.57,3.8,3.8,0,0,1-3.84,3.75h-.3c-3.6-.13-7.34-.27-10.81-.27s-6.93.14-10.12.27-4.16-2.07-4.16-3.6a3.81,3.81,0,0,1,3.75-3.88h.44c1.66,0,2.08.14,4.3.14a2.18,2.18,0,0,0,2.35-2,2.29,2.29,0,0,0,0-.37c.14-8.73.28-15.94.28-23.15,0-5.13-.14-10.4-.14-16.36,0-3.61-1.25-6.1-4.57-6.24a25.55,25.55,0,0,0-2.91.14h-.31a3.67,3.67,0,0,1-3.76-3.58c0-.1,0-.2,0-.3a3.92,3.92,0,0,1,3.85-4h4.15c5.54,0,10.26,2.63,11,7.76.14.41.28.69.69.69a1.32,1.32,0,0,0,.7-.41c4.85-6.24,12.75-9.43,20.51-9.43,11.51,0,22.6,7.07,23.16,22.18.14,4.58.27,15.94.27,25.93v6.65c0,1.53.7,2.5,2.22,2.5,2.08,0,2.08-.14,4-.14h.25a3.75,3.75,0,1,1,.54,7.48,2.44,2.44,0,0,1-.54,0Z"/><path d="M327.5,67.66c0-3.49-2-6.11-4.94-6.11-4.66,0-7.56.29-11.34.29-1.75,0-9-.29-9.31-8.43.29-4.07,2.91-8.14,8.72-8.14h.59c7.56.29,15.12.58,22.09.58,15.42,0,29.37-.58,43.33-.87,7.56,0,15.12,0,22.39.29,62.81,3.49,101.78,43.32,101.78,104.39,0,99.74-78.51,105.85-116.9,105.85-11.63,0-22.39-.59-38.67-.88-9.31,0-20.65,0-34.61.59-4.36.29-9-2-9-8.44,0-4.36,2.91-8.72,8.72-8.72h.29c3.78,0,6.69.29,11.34.29a5.59,5.59,0,0,0,5.53-5.66v-165Zm48.85-6.4c-29.08,0-30.24.58-30.24,7-.29,18.9-.58,41-.58,63.68,0,35.19.29,71.83.58,100.32C346.11,239,354,239,372,239c43.91,0,109.92-1.74,109.92-89.27,0-50.6-32.28-86.65-84.62-88.11C394.38,61.26,385.66,61.26,376.35,61.26Z"/><path class="cls-1" d="M281.44,132.47S261.5,15.56,148.5,15.56,15.56,132.47,15.56,132.47"/><rect class="cls-1" x="267.5" y="114.5" width="27" height="27"/><rect class="cls-1" x="2.5" y="114.5" width="27" height="27"/><rect class="cls-1" x="134.5" y="2.5" width="27" height="27"/><polyline class="cls-1" points="267.5 131.5 147.5 168.5 29.5 131.5"/><path d="M120.05,74.22c.09.21,8.2,20,9,39.42H119.8v18.64H126v12.64h43.72V132.28H176V113.64h-9.25c.82-19.43,8.93-39.21,9-39.42l.73-1.75L175.22,71,147.89,38.86,119.32,72.47Zm27.84,2.13a3.11,3.11,0,1,1-3.11,3.11h0A3.12,3.12,0,0,1,147.89,76.35Zm21.39-2.73a149.12,149.12,0,0,0-7.5,27.61H134a149.12,149.12,0,0,0-7.5-27.61l18.28-21.51V70.67a9.32,9.32,0,1,0,6.22,0V52.11Zm-8.34,33.82c-.22,2-.38,4.12-.46,6.2H135.29q-.12-3.12-.45-6.2Zm-28.69,24.84h31.28v6.43H132.25ZM126,119.85h43.72v6.22H126Z"/><rect class="cls-1" x="134.44" y="156.56" width="27" height="27"/><path class="cls-2" d="M147.89,184.74V267s2.55,25.53,25.55,24.53,22-26,22-26"/></g></g></svg>