<svg xmlns="http://www.w3.org/2000/svg" viewBox="0 0 548.67 257.65"><defs><style>.cls-1{fill:#fff;stroke:#000;stroke-miterlimit:10;stroke-width:5px;}</style></defs><g id="レイヤー_2" data-name="レイヤー 2"><g id="レイヤー_1-2" data-name="レイヤー 1"><path d="M267.92,98c-.14-.42-.27-.7-.55-.7a.78.78,0,0,0-.56.42c-4.16,6.65-13,10.67-21.07,10.67-14,0-22.46-9.56-22.46-19.13,0-6.93,4.58-14,14.84-17.19a226.91,226.91,0,0,1,25.64-5.69c1.67-.27,2.22-.69,2.22-1.66,0-.69.14-1.52.14-2.22,0-7.62-3.19-13.58-14.42-13.58a21.87,21.87,0,0,0-16.22,6.65A3.88,3.88,0,0,1,232.57,57a3.77,3.77,0,0,1-3.92-3.6v-.11C228.65,48,240.29,42,252.22,42c12.89,0,21.62,5.69,21.62,21.22,0,1.24,0,2.49-.13,3.88-.42,4.57-.7,11.78-.7,17,0,10.12,1,13.45,6.52,15.39a3.53,3.53,0,0,1,2.36,3.47,3.76,3.76,0,0,1-3.64,3.88h-.11C274.16,106.86,269.17,103.11,267.92,98Zm-2.08-21.22V75c0-1.11-.41-1.52-1.38-1.52H264c-21.77,3.46-33.27,6.23-33.27,15.94,0,5.82,5.54,11.65,14.83,11.65C252.65,101,265.84,98.12,265.84,76.77Z"/><path d="M318.52,106.72c-3.74-.14-7.9-.28-11.78-.28s-7.77.14-11.09.28c-.56,0-4.3.14-4.3-3.88A3.86,3.86,0,0,1,295.18,99h.47c1.8,0,2.63.13,5,.13,1.66,0,2.49-1,2.49-2.77.14-13.17.28-26.76.28-38.82,0-4-1.38-6.24-4.71-6.38-1.11,0-1.8.14-2.91.14h-.28a3.63,3.63,0,0,1-3.74-3.52v-.22a4,4,0,0,1,3.84-4.16h.16c2.63,0,2.21.14,5.4.14,7.63,0,10.26,5.54,10.26,11.37v.37c-.14,9.71-.27,20.25-.27,30.37V96.42A2.42,2.42,0,0,0,313.39,99h.27c2.22,0,2.77,0,4.85-.13.56,0,4.3-.14,4.3,3.88a3.86,3.86,0,0,1-3.83,3.89h-.33Zm-14-88.59c-.69,0-6.52,0-6.52-6.66A6.59,6.59,0,0,1,304.65,5a6.48,6.48,0,0,1,6.78,6.16c0,.12,0,.23,0,.35a6.61,6.61,0,0,1-6.55,6.67Z"/><path d="M366.21,108.24c-21.35,0-32.56-16.22-32.56-32.71,0-19.41,13.73-34,31.2-34a32,32,0,0,1,15.66,4.16,1.51,1.51,0,0,0,.7.27c.41,0,.55-.83.69-1.52.14-1.66,1.8-2.36,3.33-2.36,2.08,0,4,1.11,4,3.47v.28c-.14,2.91-.14,5-.14,7.21s0,4.29.14,7.48v.28c0,2.36-1.94,3.47-4,3.47a3.66,3.66,0,0,1-3.88-3.33c-.14-2.91.27-4.58-1.39-6.52-3.47-4-8.73-5.68-14.14-5.68-13.59,0-24.13,10.81-24.13,26.2,0,12.62,8.18,25.79,24.13,25.79,7.07,0,13.86-2.77,17.74-8a4.36,4.36,0,0,1,3.61-2.08,4.44,4.44,0,0,1,4.44,4.3C391.59,99,381.19,108.24,366.21,108.24Z"/><path d="M470.88,106.58c-3.6-.14-7.21-.28-10.81-.28s-6.8.14-10,.28-4.16-2.08-4.16-3.6a3.82,3.82,0,0,1,3.74-3.89,2.25,2.25,0,0,1,.26,0h.14c1.8,0,1.94.14,4.16.14a2.15,2.15,0,0,0,2.22-2.06,2.81,2.81,0,0,0,0-.29c0-4.58.14-9.85.14-15,0-7.21-.14-13.72-.27-16.36-.7-11.5-8-16.36-16-16.36-9.7,0-20.24,7.21-20.66,18.17,0,2.63-.13,6.79-.13,11.78s.13,11.23.13,17.75a2.12,2.12,0,0,0,1.86,2.35,2.09,2.09,0,0,0,.5,0,33.55,33.55,0,0,0,3.88-.14,3.76,3.76,0,0,1,.8,7.48,4.85,4.85,0,0,1-.66,0h-.14c-3.6-.14-7.35-.28-10.81-.28s-6.93.14-10.12.28-4.16-2.08-4.16-3.6a3.82,3.82,0,0,1,3.75-3.89H405c1.8,0,2.22.14,4.43.14a2.09,2.09,0,0,0,2.22-2.35c.14-11.23.28-28.7.28-45.34,0-11.78-.14-23-.14-31.33,0-3.61-1.11-5.55-4.71-5.69a25.85,25.85,0,0,0-3.05.14h-.14A3.78,3.78,0,0,1,400,11v-.2c0-2.36,1.11-4.16,7.07-4.16a28.65,28.65,0,0,1,3.46.28c6.52.69,9.43,4.85,9.43,10.53v7.93c0,11.23-.14,23.7-.14,25.65,0,.41.14.69.28.69s.28-.14.55-.42c4.86-6.24,12.76-9.42,20.52-9.42,11.51,0,22.6,7.07,23.16,22.18.13,5.82.27,21.76.27,32.72,0,1.52.7,2.49,2.36,2.49,2.08,0,1.94-.14,3.88-.14H471a3.75,3.75,0,0,1,.39,7.49,2.54,2.54,0,0,1-.39,0Z"/><path d="M509.28,106.72c-3.74-.14-7.9-.28-11.78-.28s-7.77.14-11.1.28c-.55,0-4.29.14-4.29-3.88A3.86,3.86,0,0,1,485.94,99h.46c1.81,0,2.64.13,5,.13,1.66,0,2.49-1,2.49-2.77.14-13.17.28-26.76.28-38.82,0-4-1.39-6.24-4.72-6.38-1.1,0-1.8.14-2.91.14h-.27a3.64,3.64,0,0,1-3.75-3.53v-.21a4,4,0,0,1,3.84-4.16h.16c2.64,0,2.22.14,5.41.14,7.63,0,10.26,5.54,10.26,11.37v.37c-.14,9.71-.28,20.25-.28,30.37V96.42A2.42,2.42,0,0,0,504.13,99h.28c2.22,0,2.77,0,4.85-.13.56,0,4.3-.14,4.3,3.88a3.86,3.86,0,0,1-3.83,3.89h-.33Zm-14-88.59c-.7,0-6.52,0-6.52-6.66A6.59,6.59,0,0,1,495.41,5h0a6.48,6.48,0,0,1,6.78,6.18c0,.11,0,.22,0,.33a6.61,6.61,0,0,1-6.55,6.67Z"/><path d="M254.65,222.24c-17.6,0-31.33-13.17-31.33-32.72,0-20.24,14.56-33.55,30.92-33.55,19,0,27.31,14.83,27.31,22.73,0,5.13-3.05,9-10.12,9.29-3.19.14-7.9.14-13,.14-10.4,0-22.19-.14-25.24-.14-1.38,0-1.66.56-1.66,2.5,0,15.11,10,24.4,23.29,24.4,10.12,0,15.81-4.3,20.11-9.15a4,4,0,0,1,2.77-1.25,4.24,4.24,0,0,1,4.16,4C281.79,211.72,272.08,222.24,254.65,222.24Zm-.27-59.34c-13.31,0-21.77,11.92-21.77,17,0,1.39,1.25,1.39,17.33,1.39,7.21,0,15,0,18.85-.14,3.33-.14,4.58-1.66,4.58-3.88,0-4-4.89-14.35-19-14.35Z"/><path d="M338.21,159.45c-.14,2.91-.14,4.86-.14,6.94s0,4,.14,7.2v.28c0,2.91-2.91,3.33-3.47,3.33-1.94,0-3.88-1.11-3.88-3.61,0-11.09-12.34-11.09-13.17-11.09-7.21,0-11.23,4.3-11.23,8.88,0,3.32,2.22,6.93,6.79,9.15,3.89,1.8,10.54,4.57,14.84,6.79,8.59,4.44,12.34,11,12.34,17.19,0,7.63-6.1,17.89-21.91,17.89-6,0-11-2.08-13.86-4.58a1.78,1.78,0,0,0-1-.55c-.28,0-.42.27-.42.69,0,3.47-1.66,3.88-3.33,3.88a3.34,3.34,0,0,1-3.59-3.07,2.26,2.26,0,0,1,0-.26v-.27c.14-3.05.28-5.13.28-7.21s-.14-4.16-.28-7.49v-.3a3.64,3.64,0,0,1,3.67-3.61h.21a3.56,3.56,0,0,1,3.74,3.37,2.29,2.29,0,0,1,0,.37c0,1-.27,1.67-.27,2.64,0,4.57,6.93,9.15,14.83,9.15,7.07,0,13.87-4,13.87-10.68,0-7.35-6.1-10.67-22.19-17.33-7.62-3.19-11.23-9.29-11.23-15.39,0-8,6.52-15.94,18.86-15.94,5,0,10.12,2.08,12.2,3.74a1,1,0,0,0,.83.28c.69,0,.56-1.25.69-1.67a3.12,3.12,0,0,1,3.19-2.21,3.23,3.23,0,0,1,3.46,3c0,.11,0,.23,0,.34Z"/><path d="M379.65,220.59c-3.75-.14-7.91-.27-11.79-.27s-7.76.13-11.09.27c-.55,0-4.3.14-4.3-3.88a3.86,3.86,0,0,1,3.83-3.89h.47c1.8,0,2.64.14,5,.14,1.67,0,2.5-1,2.5-2.77.14-13.17.28-26.76.28-38.82,0-4-1.39-6.24-4.72-6.38-1.11,0-1.8.14-2.91.14h-.27a3.64,3.64,0,0,1-3.74-3.54v-.21a4,4,0,0,1,3.85-4.15h.15c2.63,0,2.22.13,5.41.13,7.62,0,10.26,5.55,10.26,11.37v.42c-.14,9.7-.28,20.24-.28,30.36v10.81a2.44,2.44,0,0,0,2.23,2.63h.26c2.22,0,2.78,0,4.86-.14.55,0,4.3-.14,4.3,3.88a3.86,3.86,0,0,1-3.83,3.89h-.47Zm-14-88.59c-.69,0-6.51,0-6.51-6.65a6.59,6.59,0,0,1,6.64-6.52h0a6.49,6.49,0,0,1,6.79,6.17c0,.12,0,.23,0,.35A6.61,6.61,0,0,1,366,132Z"/><path d="M449.53,211.44c0-1.24,0-1.66-.14-1.66s-.55.42-1.11,1.25a29.19,29.19,0,0,1-22.6,11c-18,0-31.47-13.17-31.47-33,0-19.54,13.59-33,31.61-33,8.74,0,18.16,4.16,22.88,10.67a19,19,0,0,0,1.39,1.94c.13,0,.27-.41.41-1.52.42-5.27,4.71-9.84,11.79-9.84,3.88,0,5.82,1,5.82,4.15,0,1.94-1.11,3.89-3.33,3.89h-2.49c-2.78.13-4.86,2.21-5,7.76-.13,2.91-.13,8.46-.13,14.7,0,12.75.13,29,.13,36.32-.13,23-15.94,33.55-32.71,33.55-10.68,0-26.49-6.24-26.49-11.92a4.71,4.71,0,0,1,4.58-4.58,4,4,0,0,1,2.77,1.25c4.3,4.58,11.93,7.49,19.69,7.49,12.06,0,24.26-7.07,24.4-25.65Zm0-22.46c0-15.8-9.84-25.65-23.43-25.65-14,0-23.71,9.85-23.71,25.65s9.71,25.51,23.57,25.51c13,0,23.57-10,23.57-25.51Z"/><path d="M544.49,220.45c-3.6-.13-7.21-.27-10.81-.27s-6.79.14-10,.27-4.16-2.07-4.16-3.6a3.81,3.81,0,0,1,3.76-3.88h.38c1.66,0,1.94.14,4.16.14,1.38,0,2.08-1,2.08-2.5.14-6.38.14-14.28.14-20.79,0-4.72,0-8.6-.14-10.54-.7-11.51-8-16.22-15.81-16.22-9.7,0-20.38,7.35-20.79,18.3,0,2.63-.14,6.79-.14,11.78s.14,11.09.14,17.61c0,1.53.83,2.36,2.49,2.36a31.1,31.1,0,0,0,3.74-.14,3.68,3.68,0,0,1,4.13,3.17,5.44,5.44,0,0,1,0,.57,3.79,3.79,0,0,1-3.83,3.75h-.31c-3.6-.13-7.34-.27-10.81-.27s-6.93.14-10.12.27-4.16-2.07-4.16-3.6a3.81,3.81,0,0,1,3.76-3.88h.43c1.66,0,2.08.14,4.3.14a2.18,2.18,0,0,0,2.35-2,2.28,2.28,0,0,0,0-.37c.14-8.73.28-15.94.28-23.15,0-5.13-.14-10.4-.14-16.36,0-3.61-1.25-6.1-4.57-6.24a25.77,25.77,0,0,0-2.91.14h-.31a3.67,3.67,0,0,1-3.76-3.58c0-.1,0-.2,0-.3a3.93,3.93,0,0,1,3.86-4h4.14c5.54,0,10.26,2.63,11,7.76.14.41.28.69.69.69a1.29,1.29,0,0,0,.7-.41c4.85-6.24,12.75-9.43,20.51-9.43,11.51,0,22.6,7.07,23.16,22.18.14,4.58.27,15.94.27,25.93v6.65c0,1.53.7,2.5,2.22,2.5,2.08,0,2.08-.14,4-.14h.25a3.75,3.75,0,0,1,.55,7.48h-.55Z"/><path d="M25.87,32c0-3.49-2-6.11-4.94-6.11-4.66,0-7.56.29-11.34.29-1.75,0-9-.29-9.31-8.43C.57,13.65,3.19,9.58,9,9.58h.59c7.56.29,15.12.58,22.09.58,15.42,0,29.37-.58,43.33-.87,7.56,0,15.12,0,22.39.29C160.21,13.07,199.18,52.9,199.18,114c0,99.74-78.51,105.85-116.9,105.85-11.63,0-22.39-.59-38.67-.88-9.31,0-20.65,0-34.61.59-4.36.29-9-2-9-8.44,0-4.36,2.91-8.72,8.72-8.72H9c3.78,0,6.69.29,11.34.29A5.6,5.6,0,0,0,25.88,197V32Zm48.85-6.4c-29.08,0-30.24.58-30.24,7-.29,18.9-.58,41-.58,63.68,0,35.19.29,71.83.58,100.32,0,6.69,7.85,6.69,25.88,6.69,43.91,0,109.92-1.74,109.92-89.27,0-50.6-32.28-86.65-84.62-88.11C92.75,25.57,84,25.57,74.72,25.57Z"/><rect class="cls-1" x="176.06" y="101.5" width="27" height="27"/><rect class="cls-1" x="99.06" y="2.5" width="27" height="27"/><rect class="cls-1" x="22.06" y="2.5" width="27" height="27"/><rect class="cls-1" x="99.06" y="197.5" width="27" height="27"/><rect class="cls-1" x="22.06" y="197.5" width="27" height="27"/><path d="M130,87.34c-.21.09-20,8.2-39.42,9V87.09H72v6.2H59.33V137H72v6.28H90.61V134c19.43.82,39.21,8.93,39.42,9l1.75.73,1.47-1.26,32.14-27.33L131.78,86.61Zm-2.13,27.84a3.11,3.11,0,1,1-3.11-3.11h0A3.1,3.1,0,0,1,127.9,115.18Zm2.73,21.39a149.12,149.12,0,0,0-27.61-7.5V101.29a149.12,149.12,0,0,0,27.61-7.5l21.51,18.28H133.58a9.31,9.31,0,1,0,0,6.22h18.56Zm-33.82-8.34c-2-.22-4.12-.38-6.2-.46V102.58c2.08-.08,4.14-.23,6.2-.45ZM72,99.54v31.28H65.54V99.54ZM84.4,93.29V137H78.18V93.29Z"/></g></g></svg>